<?xml version='1.0' encoding='UTF-8' standalone='no'?>
<svg version="1.2" xmlns:rdf="http://www.w3.org/1999/02/22-rdf-syntax-ns#" height="210mm" xmlns:inkscape="http://www.inkscape.org/namespaces/inkscape" xmlns="http://www.w3.org/2000/svg" xmlns:svg="http://www.w3.org/2000/svg" viewBox="0 0 2970 2100" xmlns:dc="http://purl.org/dc/elements/1.1/" width="297mm" xmlns:xlink="http://www.w3.org/1999/xlink" baseProfile="tiny" xmlns:freecad="https://www.freecad.org/wiki/index.php?title=Svg_Namespace" xmlns:cc="http://creativecommons.org/ns#" xmlns:sodipodi="http://sodipodi.sourceforge.net/DTD/sodipodi-0.dtd">
 <title>FreeCAD SVG Export</title>
 <desc>Drawing page: Page001 exported from FreeCAD document: base1</desc>
 <defs/>
 <g inkscape:label="TechDraw" inkscape:groupmode="layer" id="Page001">
  <g id="A4_Landscape_blank.svg" style="stroke: none;" transform="scale(10.000000, 10.000000)">
   <metadata id="metadata8">
    <rdf:RDF>
     <cc:Work rdf:about="">
      <dc:format>image/svg+xml</dc:format>
      <dc:type rdf:resource="http://purl.org/dc/dcmitype/StillImage"/>
     </cc:Work>
    </rdf:RDF>
   </metadata>
  </g>
  <g stroke-width="1" stroke-linejoin="bevel" stroke-linecap="square" id="DrawingContent" fill="none" stroke="black" fill-rule="evenodd">
   <g font-style="normal" font-size="27.5167" fill="#f1f3f5" font-weight="400" stroke="none" transform="matrix(1,0,0,1,1485,1050)" fill-opacity="1" font-family="MS Shell Dlg 2">
    <path vector-effect="non-scaling-stroke" d="M-600,-675 L-600,675 L600,675 L600,-675 L-600,-675" fill-rule="evenodd"/>
   </g>
   <g font-style="normal" font-size="27.5167" fill="#f1f3f5" font-weight="400" stroke="none" transform="matrix(1,0,0,1,1485,1050)" fill-opacity="1" font-family="MS Shell Dlg 2">
    <path vector-effect="non-scaling-stroke" d="M-550,-625 L-550,25 L-550,75 L-550,475 L-550.105,475 L-550.105,525 L-550,525 L-550,625 L-75,625 L145,625 L550,625 L550,-625 L-550,-625" fill-rule="evenodd"/>
   </g>
   <g font-style="normal" font-size="27.5167" fill="#f1f3f5" font-weight="400" stroke="none" transform="matrix(1,0,0,1,1485,1050)" fill-opacity="1" font-family="MS Shell Dlg 2">
    <path vector-effect="non-scaling-stroke" d="M145,625 L550,625 L550,-625 L-550,-625 L-550,25 L-450,25 L-450,-75 L-425,-75 L-425,-173.233 L-375,-173.233 L-375,-75 L-250,-75 L-250,25 L-225,25 L-225,-175 L-250,-175 L-250,-215 L-170,-215 L-170,-175 L-200,-175 L-200,25 L0,25 L0,-25 L-50,-25 L-50,-315 L90,-315 L90,-25 L50,-25 L50,25 L349.417,25 L349.417,-25 L250,-25 L250,-290 L490,-290 L490,-25 L399.417,-25 L399.417,25 L400,25 L400,75 L400,175 L450,175 L450,225 L250,225 L250,175 L350,175 L350,75 L50,75 L50,200 L100,200 L100,225 L-50,225 L-50,200 L9.9476e-14,200 L9.9476e-14,75 L-550,75 L-550,475 L-350.105,475 L-350.105,425 L-450,425 L-450,180 L-225,180 L-225,425 L-300.105,425 L-300.105,475 L-300.105,525 L-550,525 L-550,625 L-75,625 L-75,535 L145,535 L145,625" fill-rule="evenodd"/>
   </g>
   <g font-style="normal" font-size="27.5167" fill="#f1f3f5" font-weight="400" stroke="none" transform="matrix(1,0,0,1,1485,1050)" fill-opacity="1" font-family="MS Shell Dlg 2">
    <path vector-effect="non-scaling-stroke" d="M250,-290 L250,-25 L349.417,-25 L399.417,-25 L490,-25 L490,-290 L250,-290" fill-rule="evenodd"/>
   </g>
   <g font-style="normal" font-size="27.5167" fill="#f1f3f5" font-weight="400" stroke="none" transform="matrix(1,0,0,1,1485,1050)" fill-opacity="1" font-family="MS Shell Dlg 2">
    <path vector-effect="non-scaling-stroke" d="M-450,180 L-450,425 L-350.105,425 L-300.105,425 L-225,425 L-225,180 L-450,180" fill-rule="evenodd"/>
   </g>
   <g font-style="normal" font-size="27.5167" fill="#f1f3f5" font-weight="400" stroke="none" transform="matrix(1,0,0,1,1485,1050)" fill-opacity="1" font-family="MS Shell Dlg 2">
    <path vector-effect="non-scaling-stroke" d="M-550,25 L-550,75 L9.9476e-14,75 L50,75 L350,75 L400,75 L400,25 L399.417,25 L349.417,25 L50,25 L0,25 L-200,25 L-225,25 L-250,25 L-450,25 L-550,25" fill-rule="evenodd"/>
   </g>
   <g font-style="normal" font-size="27.5167" fill="#f1f3f5" font-weight="400" stroke="none" transform="matrix(1,0,0,1,1485,1050)" fill-opacity="1" font-family="MS Shell Dlg 2">
    <path vector-effect="non-scaling-stroke" d="M-50,-315 L-50,-25 L0,-25 L50,-25 L90,-25 L90,-315 L-50,-315" fill-rule="evenodd"/>
   </g>
   <g font-style="normal" font-size="27.5167" fill="#f1f3f5" font-weight="400" stroke="none" transform="matrix(1,0,0,1,1485,1050)" fill-opacity="1" font-family="MS Shell Dlg 2">
    <path vector-effect="non-scaling-stroke" d="M-425,-75 L-450,-75 L-450,25 L-250,25 L-250,-75 L-375,-75 L-375,-73.2332 L-425,-73.2332 L-425,-75" fill-rule="evenodd"/>
   </g>
   <g font-style="normal" font-size="27.5167" fill="#f1f3f5" font-weight="400" stroke="none" transform="matrix(1,0,0,1,1485,1050)" fill-opacity="1" font-family="MS Shell Dlg 2">
    <path vector-effect="non-scaling-stroke" d="M-75,625 L145,625 L145,535 L-75,535 L-75,625" fill-rule="evenodd"/>
   </g>
   <g font-style="normal" font-size="27.5167" fill="#f1f3f5" font-weight="400" stroke="none" transform="matrix(1,0,0,1,1485,1050)" fill-opacity="1" font-family="MS Shell Dlg 2">
    <path vector-effect="non-scaling-stroke" d="M0,227.375 L0,527.375 L50,527.375 L50,227.375 L0,227.375" fill-rule="evenodd"/>
   </g>
   <g font-style="normal" font-size="27.5167" fill="#f1f3f5" font-weight="400" stroke="none" transform="matrix(1,0,0,1,1485,1050)" fill-opacity="1" font-family="MS Shell Dlg 2">
    <path vector-effect="non-scaling-stroke" d="M-550,475 L-550,525 L-300.105,525 L-300.105,475 L-350.105,475 L-550,475" fill-rule="evenodd"/>
   </g>
   <g font-style="normal" font-size="27.5167" fill="#f1f3f5" font-weight="400" stroke="none" transform="matrix(1,0,0,1,1485,1050)" fill-opacity="1" font-family="MS Shell Dlg 2">
    <path vector-effect="non-scaling-stroke" d="M250,175 L250,225 L450,225 L450,175 L400,175 L350,175 L250,175" fill-rule="evenodd"/>
   </g>
   <g font-style="normal" font-size="27.5167" fill="#f1f3f5" font-weight="400" stroke="none" transform="matrix(1,0,0,1,1485,1050)" fill-opacity="1" font-family="MS Shell Dlg 2">
    <path vector-effect="non-scaling-stroke" d="M50,200 L9.9476e-14,200 L9.9476e-14,75 L50,75 L50,200" fill-rule="evenodd"/>
   </g>
   <g font-style="normal" font-size="27.5167" fill="#f1f3f5" font-weight="400" stroke="none" transform="matrix(1,0,0,1,1485,1050)" fill-opacity="1" font-family="MS Shell Dlg 2">
    <path vector-effect="non-scaling-stroke" d="M-450,-240 L-450,-175 L-355,-175 L-355,-240 L-450,-240" fill-rule="evenodd"/>
   </g>
   <g font-style="normal" font-size="27.5167" fill="#f1f3f5" font-weight="400" stroke="none" transform="matrix(1,0,0,1,1485,1050)" fill-opacity="1" font-family="MS Shell Dlg 2">
    <path vector-effect="non-scaling-stroke" d="M-225,-175 L-200,-175 L-200,25 L-225,25 L-225,-175" fill-rule="evenodd"/>
   </g>
   <g font-style="normal" font-size="27.5167" fill="#f1f3f5" font-weight="400" stroke="none" transform="matrix(1,0,0,1,1485,1050)" fill-opacity="1" font-family="MS Shell Dlg 2">
    <path vector-effect="non-scaling-stroke" d="M400,175 L350,175 L350,75 L400,75 L400,175" fill-rule="evenodd"/>
   </g>
   <g font-style="normal" font-size="27.5167" fill="#f1f3f5" font-weight="400" stroke="none" transform="matrix(1,0,0,1,1485,1050)" fill-opacity="1" font-family="MS Shell Dlg 2">
    <path vector-effect="non-scaling-stroke" d="M-375,-75 L-425,-75 L-425,-173.233 L-375,-173.233 L-375,-75" fill-rule="evenodd"/>
   </g>
   <g font-style="normal" font-size="27.5167" fill="#f1f3f5" font-weight="400" stroke="none" transform="matrix(1,0,0,1,1485,1050)" fill-opacity="1" font-family="MS Shell Dlg 2">
    <path vector-effect="non-scaling-stroke" d="M-50,200 L-50,225 L100,225 L100,200 L50,200 L9.9476e-14,200 L-50,200" fill-rule="evenodd"/>
   </g>
   <g font-style="normal" font-size="27.5167" fill="#f1f3f5" font-weight="400" stroke="none" transform="matrix(1,0,0,1,1485,1050)" fill-opacity="1" font-family="MS Shell Dlg 2">
    <path vector-effect="non-scaling-stroke" d="M-250,-215 L-250,-175 L-225,-175 L-200,-175 L-170,-175 L-170,-215 L-250,-215" fill-rule="evenodd"/>
   </g>
   <g font-style="normal" font-size="27.5167" fill="#f1f3f5" font-weight="400" stroke="none" transform="matrix(1,0,0,1,1485,1050)" fill-opacity="1" font-family="MS Shell Dlg 2">
    <path vector-effect="non-scaling-stroke" d="M0,-25 L50,-25 L50,25 L0,25 L0,-25" fill-rule="evenodd"/>
   </g>
   <g font-style="normal" font-size="27.5167" fill="#f1f3f5" font-weight="400" stroke="none" transform="matrix(1,0,0,1,1485,1050)" fill-opacity="1" font-family="MS Shell Dlg 2">
    <path vector-effect="non-scaling-stroke" d="M-350.105,425 L-300.105,425 L-300.105,475 L-350.105,475 L-350.105,425" fill-rule="evenodd"/>
   </g>
   <g font-style="normal" font-size="27.5167" fill="#f1f3f5" font-weight="400" stroke="none" transform="matrix(1,0,0,1,1485,1050)" fill-opacity="1" font-family="MS Shell Dlg 2">
    <path vector-effect="non-scaling-stroke" d="M349.417,-25 L399.417,-25 L399.417,25 L349.417,25 L349.417,-25" fill-rule="evenodd"/>
   </g>
   <g font-style="normal" font-size="27.5167" fill="#f1f3f5" font-weight="400" stroke="none" transform="matrix(1,0,0,1,1485,1050)" fill-opacity="1" font-family="MS Shell Dlg 2">
    <path vector-effect="non-scaling-stroke" d="M-375,-75 L-425,-75 L-425,-73.2332 L-375,-73.2332 L-375,-75" fill-rule="evenodd"/>
   </g>
   <g font-style="normal" font-size="27.5167" fill="#f1f3f5" font-weight="400" stroke="none" transform="matrix(1,0,0,1,1485,1050)" fill-opacity="1" font-family="MS Shell Dlg 2">
    <path vector-effect="non-scaling-stroke" d="M-550,475 L-550,525 L-550.105,525 L-550.105,475 L-550,475" fill-rule="evenodd"/>
   </g>
   <g stroke-width="7" font-style="normal" stroke-opacity="1" stroke-linejoin="bevel" stroke-linecap="round" font-size="27.5167" fill="none" font-weight="400" stroke="#000000" transform="matrix(1,0,0,1,1485,1050)" font-family="MS Shell Dlg 2">
    <path vector-effect="none" d="M-550,-625 L-550,625" fill-rule="evenodd"/>
   </g>
   <g stroke-width="7" font-style="normal" stroke-opacity="1" stroke-linejoin="bevel" stroke-linecap="round" font-size="27.5167" fill="none" font-weight="400" stroke="#000000" transform="matrix(1,0,0,1,1485,1050)" font-family="MS Shell Dlg 2">
    <path vector-effect="none" d="M-550,625 L550,625" fill-rule="evenodd"/>
   </g>
   <g stroke-width="7" font-style="normal" stroke-opacity="1" stroke-linejoin="bevel" stroke-linecap="round" font-size="27.5167" fill="none" font-weight="400" stroke="#000000" transform="matrix(1,0,0,1,1485,1050)" font-family="MS Shell Dlg 2">
    <path vector-effect="none" d="M550,625 L550,-625" fill-rule="evenodd"/>
   </g>
   <g stroke-width="7" font-style="normal" stroke-opacity="1" stroke-linejoin="bevel" stroke-linecap="round" font-size="27.5167" fill="none" font-weight="400" stroke="#000000" transform="matrix(1,0,0,1,1485,1050)" font-family="MS Shell Dlg 2">
    <path vector-effect="none" d="M550,-625 L-550,-625" fill-rule="evenodd"/>
   </g>
   <g stroke-width="7" font-style="normal" stroke-opacity="1" stroke-linejoin="bevel" stroke-linecap="round" font-size="27.5167" fill="none" font-weight="400" stroke="#000000" transform="matrix(1,0,0,1,1485,1050)" font-family="MS Shell Dlg 2">
    <path vector-effect="none" d="M-450,180 L-450,425" fill-rule="evenodd"/>
   </g>
   <g stroke-width="7" font-style="normal" stroke-opacity="1" stroke-linejoin="bevel" stroke-linecap="round" font-size="27.5167" fill="none" font-weight="400" stroke="#000000" transform="matrix(1,0,0,1,1485,1050)" font-family="MS Shell Dlg 2">
    <path vector-effect="none" d="M-450,425 L-225,425" fill-rule="evenodd"/>
   </g>
   <g stroke-width="7" font-style="normal" stroke-opacity="1" stroke-linejoin="bevel" stroke-linecap="round" font-size="27.5167" fill="none" font-weight="400" stroke="#000000" transform="matrix(1,0,0,1,1485,1050)" font-family="MS Shell Dlg 2">
    <path vector-effect="none" d="M-225,425 L-225,180" fill-rule="evenodd"/>
   </g>
   <g stroke-width="7" font-style="normal" stroke-opacity="1" stroke-linejoin="bevel" stroke-linecap="round" font-size="27.5167" fill="none" font-weight="400" stroke="#000000" transform="matrix(1,0,0,1,1485,1050)" font-family="MS Shell Dlg 2">
    <path vector-effect="none" d="M-225,180 L-450,180" fill-rule="evenodd"/>
   </g>
   <g stroke-width="7" font-style="normal" stroke-opacity="1" stroke-linejoin="bevel" stroke-linecap="round" font-size="27.5167" fill="none" font-weight="400" stroke="#000000" transform="matrix(1,0,0,1,1485,1050)" font-family="MS Shell Dlg 2">
    <path vector-effect="none" d="M-75,535 L-75,625" fill-rule="evenodd"/>
   </g>
   <g stroke-width="7" font-style="normal" stroke-opacity="1" stroke-linejoin="bevel" stroke-linecap="round" font-size="27.5167" fill="none" font-weight="400" stroke="#000000" transform="matrix(1,0,0,1,1485,1050)" font-family="MS Shell Dlg 2">
    <path vector-effect="none" d="M145,625 L145,535" fill-rule="evenodd"/>
   </g>
   <g stroke-width="7" font-style="normal" stroke-opacity="1" stroke-linejoin="bevel" stroke-linecap="round" font-size="27.5167" fill="none" font-weight="400" stroke="#000000" transform="matrix(1,0,0,1,1485,1050)" font-family="MS Shell Dlg 2">
    <path vector-effect="none" d="M145,535 L-75,535" fill-rule="evenodd"/>
   </g>
   <g stroke-width="7" font-style="normal" stroke-opacity="1" stroke-linejoin="bevel" stroke-linecap="round" font-size="27.5167" fill="none" font-weight="400" stroke="#000000" transform="matrix(1,0,0,1,1485,1050)" font-family="MS Shell Dlg 2">
    <path vector-effect="none" d="M-450,-240 L-450,-175" fill-rule="evenodd"/>
   </g>
   <g stroke-width="7" font-style="normal" stroke-opacity="1" stroke-linejoin="bevel" stroke-linecap="round" font-size="27.5167" fill="none" font-weight="400" stroke="#000000" transform="matrix(1,0,0,1,1485,1050)" font-family="MS Shell Dlg 2">
    <path vector-effect="none" d="M-450,-175 L-355,-175" fill-rule="evenodd"/>
   </g>
   <g stroke-width="7" font-style="normal" stroke-opacity="1" stroke-linejoin="bevel" stroke-linecap="round" font-size="27.5167" fill="none" font-weight="400" stroke="#000000" transform="matrix(1,0,0,1,1485,1050)" font-family="MS Shell Dlg 2">
    <path vector-effect="none" d="M-355,-175 L-355,-240" fill-rule="evenodd"/>
   </g>
   <g stroke-width="7" font-style="normal" stroke-opacity="1" stroke-linejoin="bevel" stroke-linecap="round" font-size="27.5167" fill="none" font-weight="400" stroke="#000000" transform="matrix(1,0,0,1,1485,1050)" font-family="MS Shell Dlg 2">
    <path vector-effect="none" d="M-355,-240 L-450,-240" fill-rule="evenodd"/>
   </g>
   <g stroke-width="7" font-style="normal" stroke-opacity="1" stroke-linejoin="bevel" stroke-linecap="round" font-size="27.5167" fill="none" font-weight="400" stroke="#000000" transform="matrix(1,0,0,1,1485,1050)" font-family="MS Shell Dlg 2">
    <path vector-effect="none" d="M-250,-215 L-250,-175" fill-rule="evenodd"/>
   </g>
   <g stroke-width="7" font-style="normal" stroke-opacity="1" stroke-linejoin="bevel" stroke-linecap="round" font-size="27.5167" fill="none" font-weight="400" stroke="#000000" transform="matrix(1,0,0,1,1485,1050)" font-family="MS Shell Dlg 2">
    <path vector-effect="none" d="M-250,-175 L-170,-175" fill-rule="evenodd"/>
   </g>
   <g stroke-width="7" font-style="normal" stroke-opacity="1" stroke-linejoin="bevel" stroke-linecap="round" font-size="27.5167" fill="none" font-weight="400" stroke="#000000" transform="matrix(1,0,0,1,1485,1050)" font-family="MS Shell Dlg 2">
    <path vector-effect="none" d="M-170,-175 L-170,-215" fill-rule="evenodd"/>
   </g>
   <g stroke-width="7" font-style="normal" stroke-opacity="1" stroke-linejoin="bevel" stroke-linecap="round" font-size="27.5167" fill="none" font-weight="400" stroke="#000000" transform="matrix(1,0,0,1,1485,1050)" font-family="MS Shell Dlg 2">
    <path vector-effect="none" d="M-170,-215 L-250,-215" fill-rule="evenodd"/>
   </g>
   <g stroke-width="7" font-style="normal" stroke-opacity="1" stroke-linejoin="bevel" stroke-linecap="round" font-size="27.5167" fill="none" font-weight="400" stroke="#000000" transform="matrix(1,0,0,1,1485,1050)" font-family="MS Shell Dlg 2">
    <path vector-effect="none" d="M-50,-315 L-50,-25" fill-rule="evenodd"/>
   </g>
   <g stroke-width="7" font-style="normal" stroke-opacity="1" stroke-linejoin="bevel" stroke-linecap="round" font-size="27.5167" fill="none" font-weight="400" stroke="#000000" transform="matrix(1,0,0,1,1485,1050)" font-family="MS Shell Dlg 2">
    <path vector-effect="none" d="M-50,-25 L90,-25" fill-rule="evenodd"/>
   </g>
   <g stroke-width="7" font-style="normal" stroke-opacity="1" stroke-linejoin="bevel" stroke-linecap="round" font-size="27.5167" fill="none" font-weight="400" stroke="#000000" transform="matrix(1,0,0,1,1485,1050)" font-family="MS Shell Dlg 2">
    <path vector-effect="none" d="M90,-25 L90,-315" fill-rule="evenodd"/>
   </g>
   <g stroke-width="7" font-style="normal" stroke-opacity="1" stroke-linejoin="bevel" stroke-linecap="round" font-size="27.5167" fill="none" font-weight="400" stroke="#000000" transform="matrix(1,0,0,1,1485,1050)" font-family="MS Shell Dlg 2">
    <path vector-effect="none" d="M90,-315 L-50,-315" fill-rule="evenodd"/>
   </g>
   <g stroke-width="7" font-style="normal" stroke-opacity="1" stroke-linejoin="bevel" stroke-linecap="round" font-size="27.5167" fill="none" font-weight="400" stroke="#000000" transform="matrix(1,0,0,1,1485,1050)" font-family="MS Shell Dlg 2">
    <path vector-effect="none" d="M250,-290 L250,-25" fill-rule="evenodd"/>
   </g>
   <g stroke-width="7" font-style="normal" stroke-opacity="1" stroke-linejoin="bevel" stroke-linecap="round" font-size="27.5167" fill="none" font-weight="400" stroke="#000000" transform="matrix(1,0,0,1,1485,1050)" font-family="MS Shell Dlg 2">
    <path vector-effect="none" d="M250,-25 L490,-25" fill-rule="evenodd"/>
   </g>
   <g stroke-width="7" font-style="normal" stroke-opacity="1" stroke-linejoin="bevel" stroke-linecap="round" font-size="27.5167" fill="none" font-weight="400" stroke="#000000" transform="matrix(1,0,0,1,1485,1050)" font-family="MS Shell Dlg 2">
    <path vector-effect="none" d="M490,-25 L490,-290" fill-rule="evenodd"/>
   </g>
   <g stroke-width="7" font-style="normal" stroke-opacity="1" stroke-linejoin="bevel" stroke-linecap="round" font-size="27.5167" fill="none" font-weight="400" stroke="#000000" transform="matrix(1,0,0,1,1485,1050)" font-family="MS Shell Dlg 2">
    <path vector-effect="none" d="M490,-290 L250,-290" fill-rule="evenodd"/>
   </g>
   <g stroke-width="7" font-style="normal" stroke-opacity="1" stroke-linejoin="bevel" stroke-linecap="round" font-size="27.5167" fill="none" font-weight="400" stroke="#000000" transform="matrix(1,0,0,1,1485,1050)" font-family="MS Shell Dlg 2">
    <path vector-effect="none" d="M-50,200 L-50,225" fill-rule="evenodd"/>
   </g>
   <g stroke-width="7" font-style="normal" stroke-opacity="1" stroke-linejoin="bevel" stroke-linecap="round" font-size="27.5167" fill="none" font-weight="400" stroke="#000000" transform="matrix(1,0,0,1,1485,1050)" font-family="MS Shell Dlg 2">
    <path vector-effect="none" d="M-50,225 L100,225" fill-rule="evenodd"/>
   </g>
   <g stroke-width="7" font-style="normal" stroke-opacity="1" stroke-linejoin="bevel" stroke-linecap="round" font-size="27.5167" fill="none" font-weight="400" stroke="#000000" transform="matrix(1,0,0,1,1485,1050)" font-family="MS Shell Dlg 2">
    <path vector-effect="none" d="M100,225 L100,200" fill-rule="evenodd"/>
   </g>
   <g stroke-width="7" font-style="normal" stroke-opacity="1" stroke-linejoin="bevel" stroke-linecap="round" font-size="27.5167" fill="none" font-weight="400" stroke="#000000" transform="matrix(1,0,0,1,1485,1050)" font-family="MS Shell Dlg 2">
    <path vector-effect="none" d="M100,200 L-50,200" fill-rule="evenodd"/>
   </g>
   <g stroke-width="7" font-style="normal" stroke-opacity="1" stroke-linejoin="bevel" stroke-linecap="round" font-size="27.5167" fill="none" font-weight="400" stroke="#000000" transform="matrix(1,0,0,1,1485,1050)" font-family="MS Shell Dlg 2">
    <path vector-effect="none" d="M-450,-75 L-450,25" fill-rule="evenodd"/>
   </g>
   <g stroke-width="7" font-style="normal" stroke-opacity="1" stroke-linejoin="bevel" stroke-linecap="round" font-size="27.5167" fill="none" font-weight="400" stroke="#000000" transform="matrix(1,0,0,1,1485,1050)" font-family="MS Shell Dlg 2">
    <path vector-effect="none" d="M-250,25 L-250,-75" fill-rule="evenodd"/>
   </g>
   <g stroke-width="7" font-style="normal" stroke-opacity="1" stroke-linejoin="bevel" stroke-linecap="round" font-size="27.5167" fill="none" font-weight="400" stroke="#000000" transform="matrix(1,0,0,1,1485,1050)" font-family="MS Shell Dlg 2">
    <path vector-effect="none" d="M-250,-75 L-450,-75" fill-rule="evenodd"/>
   </g>
   <g stroke-width="7" font-style="normal" stroke-opacity="1" stroke-linejoin="bevel" stroke-linecap="round" font-size="27.5167" fill="none" font-weight="400" stroke="#000000" transform="matrix(1,0,0,1,1485,1050)" font-family="MS Shell Dlg 2">
    <path vector-effect="none" d="M250,175 L250,225" fill-rule="evenodd"/>
   </g>
   <g stroke-width="7" font-style="normal" stroke-opacity="1" stroke-linejoin="bevel" stroke-linecap="round" font-size="27.5167" fill="none" font-weight="400" stroke="#000000" transform="matrix(1,0,0,1,1485,1050)" font-family="MS Shell Dlg 2">
    <path vector-effect="none" d="M250,225 L450,225" fill-rule="evenodd"/>
   </g>
   <g stroke-width="7" font-style="normal" stroke-opacity="1" stroke-linejoin="bevel" stroke-linecap="round" font-size="27.5167" fill="none" font-weight="400" stroke="#000000" transform="matrix(1,0,0,1,1485,1050)" font-family="MS Shell Dlg 2">
    <path vector-effect="none" d="M450,225 L450,175" fill-rule="evenodd"/>
   </g>
   <g stroke-width="7" font-style="normal" stroke-opacity="1" stroke-linejoin="bevel" stroke-linecap="round" font-size="27.5167" fill="none" font-weight="400" stroke="#000000" transform="matrix(1,0,0,1,1485,1050)" font-family="MS Shell Dlg 2">
    <path vector-effect="none" d="M450,175 L250,175" fill-rule="evenodd"/>
   </g>
   <g stroke-width="7" font-style="normal" stroke-opacity="1" stroke-linejoin="bevel" stroke-linecap="round" font-size="27.5167" fill="none" font-weight="400" stroke="#000000" transform="matrix(1,0,0,1,1485,1050)" font-family="MS Shell Dlg 2">
    <path vector-effect="none" d="M-600,-675 L-600,675" fill-rule="evenodd"/>
   </g>
   <g stroke-width="7" font-style="normal" stroke-opacity="1" stroke-linejoin="bevel" stroke-linecap="round" font-size="27.5167" fill="none" font-weight="400" stroke="#000000" transform="matrix(1,0,0,1,1485,1050)" font-family="MS Shell Dlg 2">
    <path vector-effect="none" d="M-600,675 L600,675" fill-rule="evenodd"/>
   </g>
   <g stroke-width="7" font-style="normal" stroke-opacity="1" stroke-linejoin="bevel" stroke-linecap="round" font-size="27.5167" fill="none" font-weight="400" stroke="#000000" transform="matrix(1,0,0,1,1485,1050)" font-family="MS Shell Dlg 2">
    <path vector-effect="none" d="M600,675 L600,-675" fill-rule="evenodd"/>
   </g>
   <g stroke-width="7" font-style="normal" stroke-opacity="1" stroke-linejoin="bevel" stroke-linecap="round" font-size="27.5167" fill="none" font-weight="400" stroke="#000000" transform="matrix(1,0,0,1,1485,1050)" font-family="MS Shell Dlg 2">
    <path vector-effect="none" d="M600,-675 L-600,-675" fill-rule="evenodd"/>
   </g>
   <g stroke-width="7" font-style="normal" stroke-opacity="1" stroke-linejoin="bevel" stroke-linecap="round" font-size="27.5167" fill="none" font-weight="400" stroke="#000000" transform="matrix(1,0,0,1,1485,1050)" font-family="MS Shell Dlg 2">
    <path vector-effect="none" d="M-550,75 L400,75" fill-rule="evenodd"/>
   </g>
   <g stroke-width="7" font-style="normal" stroke-opacity="1" stroke-linejoin="bevel" stroke-linecap="round" font-size="27.5167" fill="none" font-weight="400" stroke="#000000" transform="matrix(1,0,0,1,1485,1050)" font-family="MS Shell Dlg 2">
    <path vector-effect="none" d="M350,75 L350,175" fill-rule="evenodd"/>
   </g>
   <g stroke-width="7" font-style="normal" stroke-opacity="1" stroke-linejoin="bevel" stroke-linecap="round" font-size="27.5167" fill="none" font-weight="400" stroke="#000000" transform="matrix(1,0,0,1,1485,1050)" font-family="MS Shell Dlg 2">
    <path vector-effect="none" d="M400,175 L400,75" fill-rule="evenodd"/>
   </g>
   <g stroke-width="7" font-style="normal" stroke-opacity="1" stroke-linejoin="bevel" stroke-linecap="round" font-size="27.5167" fill="none" font-weight="400" stroke="#000000" transform="matrix(1,0,0,1,1485,1050)" font-family="MS Shell Dlg 2">
    <path vector-effect="none" d="M400,75 L400,25" fill-rule="evenodd"/>
   </g>
   <g stroke-width="7" font-style="normal" stroke-opacity="1" stroke-linejoin="bevel" stroke-linecap="round" font-size="27.5167" fill="none" font-weight="400" stroke="#000000" transform="matrix(1,0,0,1,1485,1050)" font-family="MS Shell Dlg 2">
    <path vector-effect="none" d="M400,25 L-550,25" fill-rule="evenodd"/>
   </g>
   <g stroke-width="7" font-style="normal" stroke-opacity="1" stroke-linejoin="bevel" stroke-linecap="round" font-size="27.5167" fill="none" font-weight="400" stroke="#000000" transform="matrix(1,0,0,1,1485,1050)" font-family="MS Shell Dlg 2">
    <path vector-effect="none" d="M9.9476e-14,75 L9.9476e-14,200" fill-rule="evenodd"/>
   </g>
   <g stroke-width="7" font-style="normal" stroke-opacity="1" stroke-linejoin="bevel" stroke-linecap="round" font-size="27.5167" fill="none" font-weight="400" stroke="#000000" transform="matrix(1,0,0,1,1485,1050)" font-family="MS Shell Dlg 2">
    <path vector-effect="none" d="M50,200 L50,75" fill-rule="evenodd"/>
   </g>
   <g stroke-width="7" font-style="normal" stroke-opacity="1" stroke-linejoin="bevel" stroke-linecap="round" font-size="27.5167" fill="none" font-weight="400" stroke="#000000" transform="matrix(1,0,0,1,1485,1050)" font-family="MS Shell Dlg 2">
    <path vector-effect="none" d="M0,227.375 L0,527.375" fill-rule="evenodd"/>
   </g>
   <g stroke-width="7" font-style="normal" stroke-opacity="1" stroke-linejoin="bevel" stroke-linecap="round" font-size="27.5167" fill="none" font-weight="400" stroke="#000000" transform="matrix(1,0,0,1,1485,1050)" font-family="MS Shell Dlg 2">
    <path vector-effect="none" d="M0,527.375 L50,527.375" fill-rule="evenodd"/>
   </g>
   <g stroke-width="7" font-style="normal" stroke-opacity="1" stroke-linejoin="bevel" stroke-linecap="round" font-size="27.5167" fill="none" font-weight="400" stroke="#000000" transform="matrix(1,0,0,1,1485,1050)" font-family="MS Shell Dlg 2">
    <path vector-effect="none" d="M50,527.375 L50,227.375" fill-rule="evenodd"/>
   </g>
   <g stroke-width="7" font-style="normal" stroke-opacity="1" stroke-linejoin="bevel" stroke-linecap="round" font-size="27.5167" fill="none" font-weight="400" stroke="#000000" transform="matrix(1,0,0,1,1485,1050)" font-family="MS Shell Dlg 2">
    <path vector-effect="none" d="M50,227.375 L0,227.375" fill-rule="evenodd"/>
   </g>
   <g stroke-width="7" font-style="normal" stroke-opacity="1" stroke-linejoin="bevel" stroke-linecap="round" font-size="27.5167" fill="none" font-weight="400" stroke="#000000" transform="matrix(1,0,0,1,1485,1050)" font-family="MS Shell Dlg 2">
    <path vector-effect="none" d="M349.417,-25 L349.417,25" fill-rule="evenodd"/>
   </g>
   <g stroke-width="7" font-style="normal" stroke-opacity="1" stroke-linejoin="bevel" stroke-linecap="round" font-size="27.5167" fill="none" font-weight="400" stroke="#000000" transform="matrix(1,0,0,1,1485,1050)" font-family="MS Shell Dlg 2">
    <path vector-effect="none" d="M399.417,25 L399.417,-25" fill-rule="evenodd"/>
   </g>
   <g stroke-width="7" font-style="normal" stroke-opacity="1" stroke-linejoin="bevel" stroke-linecap="round" font-size="27.5167" fill="none" font-weight="400" stroke="#000000" transform="matrix(1,0,0,1,1485,1050)" font-family="MS Shell Dlg 2">
    <path vector-effect="none" d="M0,-25 L0,25" fill-rule="evenodd"/>
   </g>
   <g stroke-width="7" font-style="normal" stroke-opacity="1" stroke-linejoin="bevel" stroke-linecap="round" font-size="27.5167" fill="none" font-weight="400" stroke="#000000" transform="matrix(1,0,0,1,1485,1050)" font-family="MS Shell Dlg 2">
    <path vector-effect="none" d="M50,25 L50,-25" fill-rule="evenodd"/>
   </g>
   <g stroke-width="7" font-style="normal" stroke-opacity="1" stroke-linejoin="bevel" stroke-linecap="round" font-size="27.5167" fill="none" font-weight="400" stroke="#000000" transform="matrix(1,0,0,1,1485,1050)" font-family="MS Shell Dlg 2">
    <path vector-effect="none" d="M-425,-173.233 L-425,-73.2332" fill-rule="evenodd"/>
   </g>
   <g stroke-width="7" font-style="normal" stroke-opacity="1" stroke-linejoin="bevel" stroke-linecap="round" font-size="27.5167" fill="none" font-weight="400" stroke="#000000" transform="matrix(1,0,0,1,1485,1050)" font-family="MS Shell Dlg 2">
    <path vector-effect="none" d="M-425,-73.2332 L-375,-73.2332" fill-rule="evenodd"/>
   </g>
   <g stroke-width="7" font-style="normal" stroke-opacity="1" stroke-linejoin="bevel" stroke-linecap="round" font-size="27.5167" fill="none" font-weight="400" stroke="#000000" transform="matrix(1,0,0,1,1485,1050)" font-family="MS Shell Dlg 2">
    <path vector-effect="none" d="M-375,-73.2332 L-375,-173.233" fill-rule="evenodd"/>
   </g>
   <g stroke-width="7" font-style="normal" stroke-opacity="1" stroke-linejoin="bevel" stroke-linecap="round" font-size="27.5167" fill="none" font-weight="400" stroke="#000000" transform="matrix(1,0,0,1,1485,1050)" font-family="MS Shell Dlg 2">
    <path vector-effect="none" d="M-375,-173.233 L-425,-173.233" fill-rule="evenodd"/>
   </g>
   <g stroke-width="7" font-style="normal" stroke-opacity="1" stroke-linejoin="bevel" stroke-linecap="round" font-size="27.5167" fill="none" font-weight="400" stroke="#000000" transform="matrix(1,0,0,1,1485,1050)" font-family="MS Shell Dlg 2">
    <path vector-effect="none" d="M-225,-175 L-225,25" fill-rule="evenodd"/>
   </g>
   <g stroke-width="7" font-style="normal" stroke-opacity="1" stroke-linejoin="bevel" stroke-linecap="round" font-size="27.5167" fill="none" font-weight="400" stroke="#000000" transform="matrix(1,0,0,1,1485,1050)" font-family="MS Shell Dlg 2">
    <path vector-effect="none" d="M-200,25 L-200,-175" fill-rule="evenodd"/>
   </g>
   <g stroke-width="7" font-style="normal" stroke-opacity="1" stroke-linejoin="bevel" stroke-linecap="round" font-size="27.5167" fill="none" font-weight="400" stroke="#000000" transform="matrix(1,0,0,1,1485,1050)" font-family="MS Shell Dlg 2">
    <path vector-effect="none" d="M-550.105,475 L-550.105,525" fill-rule="evenodd"/>
   </g>
   <g stroke-width="7" font-style="normal" stroke-opacity="1" stroke-linejoin="bevel" stroke-linecap="round" font-size="27.5167" fill="none" font-weight="400" stroke="#000000" transform="matrix(1,0,0,1,1485,1050)" font-family="MS Shell Dlg 2">
    <path vector-effect="none" d="M-550.105,525 L-300.105,525" fill-rule="evenodd"/>
   </g>
   <g stroke-width="7" font-style="normal" stroke-opacity="1" stroke-linejoin="bevel" stroke-linecap="round" font-size="27.5167" fill="none" font-weight="400" stroke="#000000" transform="matrix(1,0,0,1,1485,1050)" font-family="MS Shell Dlg 2">
    <path vector-effect="none" d="M-300.105,525 L-300.105,475" fill-rule="evenodd"/>
   </g>
   <g stroke-width="7" font-style="normal" stroke-opacity="1" stroke-linejoin="bevel" stroke-linecap="round" font-size="27.5167" fill="none" font-weight="400" stroke="#000000" transform="matrix(1,0,0,1,1485,1050)" font-family="MS Shell Dlg 2">
    <path vector-effect="none" d="M-300.105,475 L-300.105,425" fill-rule="evenodd"/>
   </g>
   <g stroke-width="7" font-style="normal" stroke-opacity="1" stroke-linejoin="bevel" stroke-linecap="round" font-size="27.5167" fill="none" font-weight="400" stroke="#000000" transform="matrix(1,0,0,1,1485,1050)" font-family="MS Shell Dlg 2">
    <path vector-effect="none" d="M-350.105,425 L-350.105,475" fill-rule="evenodd"/>
   </g>
   <g stroke-width="7" font-style="normal" stroke-opacity="1" stroke-linejoin="bevel" stroke-linecap="round" font-size="27.5167" fill="none" font-weight="400" stroke="#000000" transform="matrix(1,0,0,1,1485,1050)" font-family="MS Shell Dlg 2">
    <path vector-effect="none" d="M-300.105,475 L-550.105,475" fill-rule="evenodd"/>
   </g>
   <g stroke-width="1" font-style="normal" stroke-opacity="1" stroke-linejoin="bevel" stroke-linecap="square" font-size="27.5167" fill="none" font-weight="400" stroke="#000000" transform="matrix(1,0,0,1,1751.31,837.294)" font-family="MS Shell Dlg 2">
    <text x="4" font-style="normal" xml:space="preserve" font-size="68" fill="#000000" font-weight="400" stroke="none" fill-opacity="1" font-family="MS Shell Dlg 2" y="72.0313">GEN24</text>
   </g>
   <g stroke-width="1" font-style="normal" stroke-opacity="1" stroke-linejoin="bevel" stroke-linecap="square" font-size="27.5167" fill="none" font-weight="400" stroke="#000000" transform="matrix(1,0,0,1,1751.31,837.294)" font-family="MS Shell Dlg 2">
    <text x="207.109" font-style="normal" xml:space="preserve" font-size="27.5167" fill="#000000" font-weight="400" stroke="none" fill-opacity="1" font-family="MS Shell Dlg 2" y="72.0313"/>
   </g>
   <g stroke-width="1" font-style="normal" stroke-opacity="1" stroke-linejoin="bevel" stroke-linecap="square" font-size="27.5167" fill="none" font-weight="400" stroke="#000000" transform="matrix(1,0,0,1,1054.97,1305.47)" font-family="MS Shell Dlg 2">
    <text x="4" font-style="normal" xml:space="preserve" font-size="68" fill="#000000" font-weight="400" stroke="none" fill-opacity="1" font-family="MS Shell Dlg 2" y="72.0313">MUST</text>
   </g>
   <g stroke-width="1" font-style="normal" stroke-opacity="1" stroke-linejoin="bevel" stroke-linecap="square" font-size="27.5167" fill="none" font-weight="400" stroke="#000000" transform="matrix(1,0,0,1,1054.97,1305.47)" font-family="MS Shell Dlg 2">
    <text x="178.547" font-style="normal" xml:space="preserve" font-size="27.5167" fill="#000000" font-weight="400" stroke="none" fill-opacity="1" font-family="MS Shell Dlg 2" y="72.0313"/>
   </g>
   <g stroke-width="1" font-style="normal" stroke-opacity="1" stroke-linejoin="bevel" stroke-linecap="square" font-size="27.5167" fill="none" font-weight="400" stroke="#000000" transform="matrix(1,0,0,1,1406.3,1612.18)" font-family="MS Shell Dlg 2">
    <text x="4" font-style="normal" xml:space="preserve" font-size="27" fill="#000000" font-weight="400" stroke="none" fill-opacity="1" font-family="MS Shell Dlg 2" y="31">PYLONTHEC</text>
   </g>
   <g stroke-width="1" font-style="normal" stroke-opacity="1" stroke-linejoin="bevel" stroke-linecap="square" font-size="27.5167" fill="none" font-weight="400" stroke="#000000" transform="matrix(1,0,0,1,1406.3,1612.18)" font-family="MS Shell Dlg 2">
    <text x="150.281" font-style="normal" xml:space="preserve" font-size="27.5167" fill="#000000" font-weight="400" stroke="none" fill-opacity="1" font-family="MS Shell Dlg 2" y="31"/>
   </g>
   <g stroke-width="1" font-style="normal" stroke-opacity="1" stroke-linejoin="bevel" stroke-linecap="square" font-size="27.5167" fill="none" font-weight="400" stroke="#000000" transform="matrix(0,-1,1,0,1464.5,957.181)" font-family="MS Shell Dlg 2">
    <text x="4" font-style="normal" xml:space="preserve" font-size="27" fill="#000000" font-weight="400" stroke="none" fill-opacity="1" font-family="MS Shell Dlg 2" y="31">MULTIPLUS II</text>
   </g>
   <g stroke-width="1" font-style="normal" stroke-opacity="1" stroke-linejoin="bevel" stroke-linecap="square" font-size="27.5167" fill="none" font-weight="400" stroke="#000000" transform="matrix(0,-1,1,0,1464.5,957.181)" font-family="MS Shell Dlg 2">
    <text x="171.344" font-style="normal" xml:space="preserve" font-size="27.5167" fill="#000000" font-weight="400" stroke="none" fill-opacity="1" font-family="MS Shell Dlg 2" y="31"/>
   </g>
   <g stroke-width="1" font-style="normal" stroke-opacity="1" stroke-linejoin="bevel" stroke-linecap="square" font-size="27.5167" fill="none" font-weight="400" stroke="#000000" transform="matrix(1,0,0,1,1261.89,839.983)" font-family="MS Shell Dlg 2">
    <text x="4" font-style="normal" xml:space="preserve" font-size="13" fill="#000000" font-weight="400" stroke="none" fill-opacity="1" font-family="MS Shell Dlg 2" y="17">GX</text>
   </g>
   <g stroke-width="1" font-style="normal" stroke-opacity="1" stroke-linejoin="bevel" stroke-linecap="square" font-size="27.5167" fill="none" font-weight="400" stroke="#000000" transform="matrix(1,0,0,1,1261.89,839.983)" font-family="MS Shell Dlg 2">
    <text x="20.2188" font-style="normal" xml:space="preserve" font-size="27.5167" fill="#000000" font-weight="400" stroke="none" fill-opacity="1" font-family="MS Shell Dlg 2" y="17"/>
   </g>
   <g stroke-width="1" font-style="normal" stroke-opacity="1" stroke-linejoin="bevel" stroke-linecap="square" font-size="27.5167" fill="none" font-weight="400" stroke="#000000" transform="matrix(1,0,0,1,1039.99,822.79)" font-family="MS Shell Dlg 2">
    <text x="4" font-style="normal" xml:space="preserve" font-size="20" fill="#000000" font-weight="400" stroke="none" fill-opacity="1" font-family="MS Shell Dlg 2" y="24">150 l 35</text>
   </g>
   <g stroke-width="1" font-style="normal" stroke-opacity="1" stroke-linejoin="bevel" stroke-linecap="square" font-size="27.5167" fill="none" font-weight="400" stroke="#000000" transform="matrix(1,0,0,1,1039.99,822.79)" font-family="MS Shell Dlg 2">
    <text x="75.5938" font-style="normal" xml:space="preserve" font-size="27.5167" fill="#000000" font-weight="400" stroke="none" fill-opacity="1" font-family="MS Shell Dlg 2" y="24"/>
   </g>
   <g stroke-width="1" font-style="normal" stroke-opacity="1" stroke-linejoin="bevel" stroke-linecap="square" font-size="27.5167" fill="none" font-weight="400" stroke="#000000" transform="matrix(1,0,0,1,1074.18,1029.5)" font-family="MS Shell Dlg 2">
    <text x="4" font-style="normal" xml:space="preserve" font-size="27" fill="#000000" font-weight="400" stroke="none" fill-opacity="1" font-family="MS Shell Dlg 2" y="31">SWITCH</text>
   </g>
   <g stroke-width="1" font-style="normal" stroke-opacity="1" stroke-linejoin="bevel" stroke-linecap="square" font-size="27.5167" fill="none" font-weight="400" stroke="#000000" transform="matrix(1,0,0,1,1074.18,1029.5)" font-family="MS Shell Dlg 2">
    <text x="103.625" font-style="normal" xml:space="preserve" font-size="27.5167" fill="#000000" font-weight="400" stroke="none" fill-opacity="1" font-family="MS Shell Dlg 2" y="31"/>
   </g>
   <g stroke-width="1" font-style="normal" stroke-opacity="1" stroke-linejoin="bevel" stroke-linecap="square" font-size="27.5167" fill="none" font-weight="400" stroke="#000000" transform="matrix(1,0,0,1,1252.88,1875.49)" font-family="MS Shell Dlg 2">
    <text x="4" font-style="normal" xml:space="preserve" font-size="68" fill="#000000" font-weight="400" stroke="none" fill-opacity="1" font-family="MS Shell Dlg 2" y="72.0313">cm Escala 1:20</text>
   </g>
   <g stroke-width="1" font-style="normal" stroke-opacity="1" stroke-linejoin="bevel" stroke-linecap="square" font-size="27.5167" fill="none" font-weight="400" stroke="#000000" transform="matrix(1,0,0,1,1252.88,1875.49)" font-family="MS Shell Dlg 2">
    <text x="457.109" font-style="normal" xml:space="preserve" font-size="27.5167" fill="#000000" font-weight="400" stroke="none" fill-opacity="1" font-family="MS Shell Dlg 2" y="72.0313"/>
   </g>
   <g stroke-width="1" font-style="normal" stroke-opacity="1" stroke-linejoin="bevel" stroke-linecap="square" font-size="27.5167" fill="none" font-weight="400" stroke="#000000" transform="matrix(1,0,0,1,1198.7,211.203)" font-family="MS Shell Dlg 2">
    <text x="4" font-style="normal" xml:space="preserve" font-size="68" fill="#000000" font-weight="400" stroke="none" fill-opacity="1" font-family="MS Shell Dlg 2" y="72.0313">Microrred UDENAR</text>
   </g>
   <g stroke-width="1" font-style="normal" stroke-opacity="1" stroke-linejoin="bevel" stroke-linecap="square" font-size="27.5167" fill="none" font-weight="400" stroke="#000000" transform="matrix(1,0,0,1,1198.7,211.203)" font-family="MS Shell Dlg 2">
    <text x="565.484" font-style="normal" xml:space="preserve" font-size="27.5167" fill="#000000" font-weight="400" stroke="none" fill-opacity="1" font-family="MS Shell Dlg 2" y="72.0313"/>
   </g>
   <g stroke-width="1" font-style="normal" stroke-opacity="1" stroke-linejoin="bevel" stroke-linecap="square" font-size="27.5167" fill="none" font-weight="400" stroke="#000000" transform="matrix(1,0,0,1,1602.53,1242.25)" font-family="MS Shell Dlg 2">
    <text x="4" font-style="normal" xml:space="preserve" font-size="27" fill="#000000" font-weight="400" stroke="none" fill-opacity="1" font-family="MS Shell Dlg 2" y="31">BUS 48 V</text>
   </g>
   <g stroke-width="1" font-style="normal" stroke-opacity="1" stroke-linejoin="bevel" stroke-linecap="square" font-size="27.5167" fill="none" font-weight="400" stroke="#000000" transform="matrix(1,0,0,1,1602.53,1242.25)" font-family="MS Shell Dlg 2">
    <text x="115.094" font-style="normal" xml:space="preserve" font-size="27.5167" fill="#000000" font-weight="400" stroke="none" fill-opacity="1" font-family="MS Shell Dlg 2" y="31"/>
   </g>
   <g stroke-width="1" font-style="normal" stroke-opacity="1" stroke-linejoin="bevel" stroke-linecap="square" font-size="27.5167" fill="none" font-weight="400" stroke="#000000" transform="matrix(1,0,0,1,1790.11,1230.59)" font-family="MS Shell Dlg 2">
    <text x="4" font-style="normal" xml:space="preserve" font-size="27" fill="#000000" font-weight="400" stroke="none" fill-opacity="1" font-family="MS Shell Dlg 2" y="31">ACOUT</text>
   </g>
   <g stroke-width="1" font-style="normal" stroke-opacity="1" stroke-linejoin="bevel" stroke-linecap="square" font-size="27.5167" fill="none" font-weight="400" stroke="#000000" transform="matrix(1,0,0,1,1790.11,1230.59)" font-family="MS Shell Dlg 2">
    <text x="88.9531" font-style="normal" xml:space="preserve" font-size="27.5167" fill="#000000" font-weight="400" stroke="none" fill-opacity="1" font-family="MS Shell Dlg 2" y="31"/>
   </g>
  </g>
 </g>
</svg>
